<svg xmlns="http://www.w3.org/2000/svg"  viewBox="0 0 50 50" width="50px" height="50px"><path fill="#429ad4" d="M40.609,6.28c-1.024-0.298-2.106-0.409-3.16-0.551c-1.144-0.154-2.29-0.288-3.438-0.405 c-2.241-0.228-4.488-0.397-6.734-0.566c-2.272-0.171-4.548-0.339-6.827-0.31c-3.463,0.044-8.718,0.193-9.528,4.478 c-0.411,2.173-0.571,4.428-0.729,6.631c-0.165,2.299-0.242,4.604-0.233,6.909c0.01,2.552,0.123,5.131,0.03,7.69 c-0.906-0.003-1.812-0.032-2.718-0.101c-0.57-0.044-0.959,0.495-1,1c-0.234,2.861-0.318,5.76-0.128,8.627 c0.086,1.295,0.333,2.567,1.196,3.583c0.781,0.919,1.973,1.467,3.143,1.672c1.411,0.248,2.838,0.112,4.256,0.027 c1.414-0.084,2.829-0.169,4.243-0.253c2.963-0.176,14.227-0.171,15.408-0.118c0.882,0.04,1.768,0.043,2.648-0.032 c0.854-0.072,1.779-0.144,2.559-0.525c1.591-0.778,1.594-2.689,1.652-4.22c0.071-1.871-0.007-3.743-0.073-5.613 C41.042,30.457,41,26.708,41.057,22.96c0.06-3.947,0.24-7.89,0.512-11.828c0.52,0.007,1.04,0.013,1.56,0.02 c0.521,0.007,1.026-0.464,1-1C44.03,8.143,42.435,6.812,40.609,6.28z"/><path fill="#fff" d="M20.584,21.71c-0.072-0.019-0.143-0.017-0.214-0.027c-0.205-0.112-0.436-0.181-0.692-0.174 c-0.898,0.024-1.796,0.047-2.694,0.071c-0.39,0.01-0.781,0.021-1.171,0.031c-0.682,0.018-1.39,0.022-1.914,0.54 c-0.788,0.781-0.622,1.915-0.587,2.924c0.029,0.851,0.069,1.703,0.128,2.553c0.051,0.735,0.25,1.396,0.945,1.783 c0.49,0.273,1.086,0.291,1.634,0.304c0.819,0.019,1.635-0.087,2.454-0.096c0.198-0.002,0.397,0.001,0.595,0.013 c0.079,0.005,0.157,0.014,0.236,0.02c0.004,0.001,0.004,0.001,0.008,0.002c0.749,0.171,1.518,0.211,2.117-0.373 c0.48-0.468,0.529-1.082,0.595-1.707c0.047-0.45,0.083-0.901,0.105-1.353c0.023-0.452,0.034-0.905,0.032-1.357 c-0.002-0.535,0.035-1.154-0.103-1.673C21.862,22.452,21.32,21.907,20.584,21.71z"/><path fill="#fff" d="M37.15,33.662c-0.76-0.756-1.887-0.689-2.876-0.734c-0.979-0.045-1.966-0.128-2.946-0.132 c-0.702-0.003-1.401,0.198-1.885,0.729c-0.413,0.453-0.615,1.092-0.525,1.692c-0.067,0.772-0.123,1.544-0.14,2.319 c-0.02,0.915-0.13,1.981,0.371,2.792c0.68,1.102,2.059,1.008,3.19,1.061c0.897,0.042,1.794,0.066,2.692,0.072 c0.565,0.004,1.178,0.047,1.67-0.286c0.664-0.45,0.838-1.097,0.913-1.85c0.091-0.907,0.147-1.818,0.176-2.729 C37.822,35.584,37.935,34.443,37.15,33.662z M34.809,35.416c0,0.007,0,0.014,0,0.021C34.795,35.401,34.797,35.394,34.809,35.416z"/><path fill="#231f20" d="M9.607,30.434c0.011,3.756,1.008,7.653-0.363,11.287c-0.084,0.223,0.062,0.439,0.23,0.565 c0.005,0.003,0.009,0.007,0.014,0.01c0.16,0.12,0.479,0.079,0.606-0.078c0.005-0.006,0.009-0.012,0.014-0.017 c0.209-0.259,0.189-0.766-0.221-0.836c-0.017-0.003-0.034-0.006-0.052-0.009c-0.629-0.106-0.9,0.857-0.266,0.964 c0.017,0.003,0.034,0.006,0.052,0.009c-0.074-0.279-0.147-0.557-0.221-0.836c-0.005,0.006-0.009,0.012-0.014,0.017 c0.202-0.026,0.404-0.052,0.606-0.078c-0.005-0.003-0.009-0.007-0.014-0.01c0.077,0.188,0.153,0.376,0.23,0.565 c1.406-3.727,0.411-7.703,0.399-11.553C10.605,29.791,9.605,29.789,9.607,30.434L9.607,30.434z"/><path fill="#231f20" d="M33.438,11.077c2.628,0.087,5.246,0.224,7.876,0.234c0.644,0.002,0.644-0.998,0-1 c-2.63-0.01-5.248-0.147-7.876-0.234C32.794,10.056,32.795,11.056,33.438,11.077L33.438,11.077z"/><path fill="#231f20" d="M13.783,17.754c6.234,0.253,12.488,0.336,18.727,0.321c1.77-0.004,3.541-0.018,5.309-0.096 c0.641-0.028,0.644-1.029,0-1c-6.994,0.31-14.036,0.052-21.031-0.134c-1.002-0.027-2.004-0.05-3.005-0.091 C13.14,16.728,13.141,17.728,13.783,17.754L13.783,17.754z"/><path fill="#231f20" d="M13.691,14.676c6.273,0.256,12.562,0.387,18.84,0.39c1.763,0.001,3.527-0.008,5.288-0.086 c0.641-0.028,0.644-1.029,0-1c-7.028,0.311-14.108,0.01-21.135-0.203c-0.998-0.03-1.995-0.059-2.993-0.1 C13.048,13.649,13.049,14.649,13.691,14.676L13.691,14.676z"/><path fill="#231f20" d="M24.809,23.364c4.333-0.1,8.667-0.199,13-0.299c0.642-0.015,0.645-1.015,0-1 c-4.333,0.1-8.667,0.199-13,0.299C24.166,22.379,24.164,23.379,24.809,23.364L24.809,23.364z"/><path fill="#231f20" d="M25.277,26.689c4.087,0.067,8.174-0.005,12.255-0.219c0.64-0.033,0.644-1.034,0-1 c-4.082,0.213-8.169,0.286-12.255,0.219C24.634,25.679,24.634,26.679,25.277,26.689L25.277,26.689z"/><path fill="#231f20" d="M25.564,30.047c4.085-0.055,8.17-0.11,12.255-0.165c0.643-0.009,0.645-1.009,0-1 c-4.085,0.055-8.17,0.11-12.255,0.165C24.921,29.056,24.919,30.056,25.564,30.047L25.564,30.047z"/><path fill="#231f20" d="M14.452,34.008c3.75,0.468,7.53,0.609,11.305,0.423c0.641-0.032,0.644-1.032,0-1 c-3.774,0.186-7.555,0.044-11.305-0.423C13.815,32.929,13.821,33.93,14.452,34.008L14.452,34.008z"/><path fill="#231f20" d="M14.366,37.334c1.805,0.244,3.676,0.18,5.493,0.239c2.179,0.07,4.417,0.061,6.576,0.399 c0.63,0.099,0.901-0.865,0.266-0.964c-2.153-0.338-4.369-0.354-6.543-0.425c-1.153-0.038-2.306-0.069-3.459-0.109 c-0.638-0.022-1.595-0.04-2.068-0.104C14.003,36.285,13.731,37.248,14.366,37.334L14.366,37.334z"/><path fill="#231f20" d="M14.462,40.698c3.983-0.257,7.976-0.308,11.964-0.151c0.644,0.025,0.642-0.975,0-1 c-3.988-0.157-7.981-0.106-11.964,0.151C13.823,39.74,13.819,40.74,14.462,40.698L14.462,40.698z"/><path fill="#ff9600" d="M46.645,33.09c-0.098-0.531-0.742-0.833-1.23-0.698c-0.558,0.153-0.797,0.697-0.698,1.23 c0.071,0.384,0.248,0.716,0.382,1.08c0.01,0.027,0.029,0.112,0.048,0.193c-0.427-0.013-0.824,0.145-1.001,0.584 c-0.171,0.425-0.049,1.036,0.409,1.249c0.05,0.023,0.152,0.104,0.247,0.174c-0.352,0.119-0.63,0.465-0.672,0.82 c-0.061,0.514,0.235,0.927,0.716,1.097c0.187,0.066,0.042,0.26-0.018,0.266c-0.947,0.09-1.412,1.322-0.505,1.863 c0.147,0.087,0.71,0.707,0.26,0.7c-1.313-0.02-1.253,1.868,0,2c0.021,0.002,0.116,0.141,0.107,0.163 c-0.072,0.183-0.281,0.077-0.387,0.033c-0.499-0.208-1.1,0.224-1.23,0.698c-0.158,0.576,0.198,1.022,0.698,1.23 c1.136,0.473,2.526-0.276,2.847-1.439c0.166-0.602,0.03-1.162-0.272-1.619c0.183-0.265,0.316-0.568,0.368-0.899 c0.084-0.542-0.038-1.058-0.294-1.506c0.29-0.323,0.486-0.73,0.516-1.216c0.025-0.404-0.066-0.776-0.24-1.101 c0.145-0.236,0.247-0.5,0.276-0.779c0.037-0.348-0.028-0.679-0.16-0.98c0.129-0.164,0.235-0.357,0.303-0.599 C47.381,34.678,46.81,33.982,46.645,33.09z"/><path fill="#ff9600" d="M44.772,29.679c0.024,0.037,0.031,0.084,0.061,0.117c0.071,0.109,0.164,0.195,0.281,0.258 c0.08,0.034,0.159,0.067,0.239,0.101c0.177,0.048,0.354,0.048,0.532,0c0.08-0.034,0.159-0.067,0.239-0.101 c0.15-0.089,0.27-0.208,0.359-0.359c0.038-0.081,0.075-0.162,0.104-0.246c0.001-0.002,0.001-0.005,0.002-0.007 c0-0.002,0.001-0.003,0.001-0.005c0.012-0.089,0.024-0.177,0.036-0.266c0-0.003,0.001-0.007,0-0.01 c-0.009-0.24-0.042-0.319-0.143-0.531c-0.002-0.005-0.005-0.01-0.008-0.014c-0.049-0.072-0.102-0.142-0.16-0.207 c-0.002-0.002-0.003-0.004-0.005-0.005c-0.145-0.131-0.275-0.22-0.467-0.271c-0.133-0.042-0.266-0.048-0.399-0.018 c-0.133,0.006-0.257,0.046-0.372,0.119c-0.117,0.063-0.21,0.149-0.281,0.258c-0.088,0.097-0.148,0.21-0.179,0.34 c-0.012,0.089-0.024,0.177-0.036,0.266c0.001,0.181,0.046,0.349,0.137,0.505C44.731,29.626,44.752,29.652,44.772,29.679z M44.649,29.342c-0.008-0.06-0.016-0.119-0.024-0.179c0.004-0.03,0.008-0.06,0.012-0.089 C44.619,29.163,44.635,29.253,44.649,29.342z M44.642,29.04c0.006-0.042,0.011-0.085,0.017-0.127 c0.032-0.076,0.064-0.152,0.096-0.228C44.685,28.795,44.65,28.914,44.642,29.04z"/><path fill="#df4bb1" d="M2.7,10.814c0.496,0.349,0.992,0.699,1.488,1.048c0.115,0.073,0.239,0.113,0.372,0.119 c0.133,0.03,0.266,0.024,0.399-0.018c0.232-0.064,0.483-0.243,0.598-0.46c0.123-0.232,0.184-0.513,0.101-0.771 c-0.034-0.08-0.067-0.159-0.101-0.239c-0.089-0.15-0.208-0.27-0.359-0.359C4.701,9.786,4.206,9.436,3.71,9.087 C3.595,9.014,3.471,8.974,3.338,8.968c-0.133-0.03-0.266-0.024-0.399,0.018C2.707,9.05,2.456,9.229,2.342,9.446 c-0.123,0.232-0.184,0.513-0.101,0.771c0.034,0.08,0.067,0.159,0.101,0.239C2.43,10.605,2.55,10.725,2.7,10.814L2.7,10.814z"/><path fill="#df4bb1" d="M4.655,7.638c0.223,0.207,0.447,0.415,0.67,0.622c0.091,0.098,0.198,0.166,0.322,0.207 C5.766,8.53,5.894,8.558,6.032,8.553C6.17,8.558,6.298,8.53,6.417,8.467c0.124-0.04,0.231-0.109,0.322-0.207 c0.052-0.067,0.104-0.135,0.156-0.202c0.09-0.156,0.136-0.324,0.137-0.505C7.02,7.465,7.008,7.376,6.996,7.287 C6.949,7.118,6.863,6.971,6.739,6.846c-0.223-0.207-0.447-0.415-0.67-0.622C5.978,6.126,5.871,6.057,5.747,6.017 C5.628,5.954,5.499,5.926,5.362,5.931C5.224,5.926,5.096,5.954,4.976,6.017c-0.124,0.04-0.231,0.109-0.322,0.207 C4.602,6.291,4.55,6.359,4.498,6.426C4.408,6.582,4.362,6.75,4.362,6.931c0.012,0.089,0.024,0.177,0.036,0.266 C4.445,7.366,4.531,7.513,4.655,7.638L4.655,7.638z"/><g><path fill="#df4bb1" d="M7.213,3.775c0.27,0.416,0.532,0.837,0.785,1.264c0.129,0.217,0.354,0.392,0.598,0.46 C8.728,5.54,8.861,5.546,8.994,5.516C9.127,5.51,9.251,5.471,9.366,5.398C9.58,5.26,9.768,5.055,9.826,4.8 c0.06-0.262,0.039-0.535-0.101-0.771C9.472,3.603,9.21,3.182,8.94,2.766c-0.141-0.217-0.344-0.39-0.598-0.46 C8.21,2.264,8.077,2.259,7.944,2.288C7.811,2.294,7.687,2.334,7.572,2.407C7.358,2.545,7.17,2.75,7.112,3.005 C7.054,3.26,7.066,3.549,7.213,3.775L7.213,3.775z"/></g></svg>